<?xml version="1.0" encoding="UTF-8" standalone="no"?>
<svg
   xmlns:dc="http://purl.org/dc/elements/1.1/"
   xmlns:cc="http://creativecommons.org/ns#"
   xmlns:rdf="http://www.w3.org/1999/02/22-rdf-syntax-ns#"
   xmlns:svg="http://www.w3.org/2000/svg"
   xmlns="http://www.w3.org/2000/svg"
   xmlns:sodipodi="http://sodipodi.sourceforge.net/DTD/sodipodi-0.dtd"
   xmlns:inkscape="http://www.inkscape.org/namespaces/inkscape"
   width="30mm"
   height="30mm"
   viewBox="0 0 30 30"
   version="1.1"
   id="svg8"
   inkscape:version="1.0.2 (e86c870879, 2021-01-15)"
   sodipodi:docname="solus-start-light.svg">
  <defs
     id="defs2" />
  <sodipodi:namedview
     id="base"
     pagecolor="#ffffff"
     bordercolor="#666666"
     borderopacity="1.0"
     inkscape:pageopacity="0.0"
     inkscape:pageshadow="2"
     inkscape:zoom="4.3479861"
     inkscape:cx="56.692913"
     inkscape:cy="56.692913"
     inkscape:document-units="mm"
     inkscape:current-layer="layer1"
     inkscape:document-rotation="0"
     showgrid="false"
     inkscape:window-width="1366"
     inkscape:window-height="684"
     inkscape:window-x="0"
     inkscape:window-y="25"
     inkscape:window-maximized="1" />
  <metadata
     id="metadata5">
    <rdf:RDF>
      <cc:Work
         rdf:about="">
        <dc:format>image/svg+xml</dc:format>
        <dc:type
           rdf:resource="http://purl.org/dc/dcmitype/StillImage" />
        <dc:title></dc:title>
      </cc:Work>
    </rdf:RDF>
  </metadata>
  <g
     inkscape:label="Layer 1"
     inkscape:groupmode="layer"
     id="layer1">
    <path
       id="circle4804-0"
       style="fill:#b2b2b2;fill-opacity:1;stroke:none;stroke-width:0.53671;stroke-miterlimit:4;stroke-dasharray:none;stroke-opacity:1"
       d="m 10.527523,3.1868856 c -0.175506,0.5732949 -0.361876,1.142805 -0.5539713,1.7104899 a 11.449784,11.449784 0 0 0 -6.7809816,10.4546585 11.449784,11.449784 0 0 0 0.501261,3.351734 c -0.108232,0.19435 -0.213232,0.390796 -0.32246,0.58446 l -0.178801,0.357601 0.275435,0.14211 c 0.181703,0.08436 0.426229,0.147865 0.709518,0.21084 A 11.449784,11.449784 0 0 0 5.14904,21.753194 c 3.9713778,0.339182 8.421955,0.50497 12.260233,-0.05271 3.677919,-0.534381 6.765299,-1.739164 8.437728,-3.993038 a 11.449784,11.449784 0 0 0 0.0031,-0.01395 c 0.316694,-0.428797 0.572637,-0.862521 0.778763,-1.267623 l 0.1788,-0.358117 -0.358117,-0.357601 c -0.112475,-0.11845 -0.232578,-0.23171 -0.3576,-0.342101 a 11.449784,11.449784 0 0 0 0,-0.01602 A 11.449784,11.449784 0 0 0 14.642,3.9026041 11.449784,11.449784 0 0 0 11.473718,4.3496052 C 11.027919,3.6959682 10.671197,3.2297266 10.527523,3.1868856 Z m 0.357601,1.6102374 c 1.221552,2.148957 2.276873,3.3671989 3.578075,5.724715 0.129858,1.502809 0.660546,9.301308 0.715719,10.01851 C 14.792665,20.508778 12.73605,20.303314 10.158037,20.035469 8.7524998,19.889438 7.3044008,19.723333 6.1288247,19.555395 L 4.2658891,19.109428 C 6.3738038,15.384984 9.7219957,9.5437948 10.885124,4.797123 Z m 4.472595,6.082316 c -2e-6,0 4.908109,3.862831 6.977352,8.58759 -2.517578,1.241544 -4.839037,1.081919 -6.261633,1.073319 1.010308,-2.594255 1.00864,-6.108717 -0.715719,-9.660909 z m 3.399276,2.147156 c 0.890053,0.24459 1.901543,0.553872 2.862357,0.894519 1.742507,0.617791 3.361457,1.46688 4.293795,2.325439 -0.533086,0.982978 -1.460056,2.158274 -2.862358,2.862875 0.150243,-1.470785 -0.384842,-2.886017 -1.431437,-3.936194 -0.772785,-0.77543 -1.792285,-1.429593 -2.862357,-2.146639 z m 6.594946,6.374804 c -1.924789,1.698749 -4.728671,2.613063 -7.831563,3.063896 -3.723068,0.540932 -7.9355323,0.416817 -11.758973,0.113688 A 11.449784,11.449784 0 0 0 14.642,26.801982 11.449784,11.449784 0 0 0 25.351941,19.401399 Z M 5.761405,22.578983 C 5.659806,22.453216 5.559756,22.324952 5.462199,22.195027 a 11.449784,11.449784 0 0 0 0.299206,0.383956 z m -0.58601,-0.786515 a 11.449784,11.449784 0 0 0 0.250113,0.35295 c -0.08613,-0.11599 -0.169416,-0.233821 -0.250113,-0.35295 z" />
    <circle
       inkscape:export-ydpi="90"
       inkscape:export-xdpi="90"
       r="11.463214"
       cy="15.33879"
       cx="14.655626"
       id="circle4812-0"
       style="fill:#500000;fill-opacity:0;stroke:none;stroke-width:0.536709;stroke-miterlimit:4;stroke-dasharray:none;stroke-opacity:1" />
  </g>
</svg>
